<svg id="Layer_1" enable-background="new 0 0 512 512" height="512" viewBox="0 0 512 512" width="512" xmlns="http://www.w3.org/2000/svg"><g><g clip-rule="evenodd" fill-rule="evenodd"><path d="m475.408 472.713v-291.014c0-13.295-10.858-24.152-24.152-24.152h-390.511c-13.295 0-24.152 10.887-24.152 24.152v291.014z" fill="#407093"/><path d="m475.408 472.713v-291.014c0-13.295-10.858-24.152-24.152-24.152h-29.113c13.268 0 24.152 10.857 24.152 24.152v291.014z" fill="#365e7d"/><path d="m46.969 504.488h418.063c10.376 0 15.79-5.158 20.042-14.514l12.217-26.732c5.244-11.508.822-19.529-12.217-19.529h-156.561c-2.353 0-5.556 1.928-6.633 5.781-2.439 8.674-10.546 14.996-19.957 14.996h-91.845c-9.411 0-17.547-6.322-19.957-14.996-1.077-3.854-4.28-5.781-6.633-5.781h-156.561c-13.067 0-17.461 8.022-12.217 19.529l12.217 26.732c4.252 9.356 9.666 14.514 20.042 14.514z" fill="#365e7d"/><path d="m435.892 504.488h29.141c10.376 0 15.79-5.158 20.042-14.514l12.217-26.732c5.244-11.508.822-19.529-12.217-19.529h-29.113c13.041 0 17.463 8.022 12.219 19.529l-12.219 26.732c-4.253 9.356-9.667 14.514-20.07 14.514z" fill="#2b4d66"/><path d="m71.773 186.887h373.645c3.203 0 5.839 2.637 5.839 5.84v215.807c0 3.203-2.636 5.84-5.839 5.84h-373.645c-3.203 0-5.84-2.637-5.84-5.84v-215.807c0-3.204 2.636-5.84 5.84-5.84z" fill="#e2d8ec"/><path d="m416.304 186.887h29.113c3.203 0 5.839 2.637 5.839 5.84v215.807c0 3.203-2.636 5.84-5.839 5.84h-29.113c3.203 0 5.839-2.637 5.839-5.84v-215.807c0-3.204-2.636-5.84-5.839-5.84z" fill="#d5c6e4"/><path d="m117.779 379.619h281.63c7.993 0 14.514-6.52 14.514-14.514v-29.963c0-7.965-6.521-14.484-14.514-14.484h-281.63c-7.965 0-14.514 6.52-14.514 14.484v29.963c.001 7.995 6.55 14.514 14.514 14.514z" fill="#c6b4da"/><path d="m370.296 379.619h29.113c7.993 0 14.514-6.52 14.514-14.514v-29.963c0-7.965-6.521-14.484-14.514-14.484h-29.113c7.966 0 14.485 6.52 14.485 14.484v29.963c0 7.995-6.519 14.514-14.485 14.514z" fill="#739ad6"/><path d="m254.187 29.758-21.317-18.48c-2.835-2.439-6.038-2.381-8.816 0l-21.316 18.48c-2.692 2.324-6.039 2.381-8.816 0l-21.316-18.48c-3.033-2.609-5.727-2.666-8.787 0l-21.347 18.48c-2.692 2.354-4.393 5.414-4.393 9.639v304.902c0 3.203 2.608 5.84 5.811 5.84h229.413c3.203 0 5.811-2.637 5.811-5.84v-304.902c0-4.225-1.701-7.285-4.395-9.639l-21.316-18.48c-3.091-2.666-5.783-2.609-8.816 0l-21.316 18.48c-2.778 2.381-6.123 2.324-8.815 0l-21.317-18.48c-2.778-2.381-5.981-2.439-8.816 0l-21.317 18.48c-2.725 2.353-6.07 2.353-8.819 0z" fill="#fff6cf"/><path d="m344.16 350.139h29.141c3.203 0 5.811-2.637 5.811-5.84v-304.902c0-4.225-1.701-7.285-4.395-9.639l-21.316-18.48c-3.091-2.666-5.783-2.609-8.816 0l-10.147 8.815 11.168 9.666c2.693 2.354 4.393 5.414 4.393 9.639v304.902c0 3.202-2.636 5.839-5.839 5.839z" fill="#fff0af"/></g><path d="m130.565 165.031h-69.82c-4.563 0-8.73 1.9-11.764 4.904-3.033 3.033-4.905 7.199-4.905 11.764v194.064c0 4.139-3.345 7.512-7.483 7.512-4.167 0-7.512-3.373-7.512-7.512v-194.064c0-8.703 3.571-16.611 9.298-22.367 5.727-5.725 13.664-9.297 22.366-9.297h69.819v-39.855c0-4.139 3.373-7.512 7.512-7.512s7.512 3.373 7.512 7.512v232.447h226.041c0-101.881 0-203.76 0-305.668l-22.65-19.588-25.229 21.856c-2.891 2.494-7.114 2.408-9.865-.086l-25.171-21.77-25.23 21.855c-2.863 2.494-7.115 2.408-9.865-.086l-25.144-21.77-25.257 21.855c-2.863 2.494-7.116 2.408-9.866-.086l-25.144-21.77-22.621 19.588v39.232c0 4.139-3.373 7.512-7.512 7.512s-7.512-3.373-7.512-7.512v-42.603c0-2.098.907-4.195 2.608-5.67l30.048-26.023c2.75-2.467 7.002-2.551 9.864-.084l25.257 21.883 25.145-21.799c2.749-2.467 7.001-2.551 9.864-.084l25.258 21.883 25.145-21.799c2.749-2.467 7.001-2.551 9.864-.084l25.229 21.883 25.145-21.799c2.777-2.467 7.001-2.551 9.894-.084l29.679 25.738c1.843 1.361 3.061 3.543 3.061 6.039v116.449h64.632c8.702 0 16.641 3.572 22.366 9.297 5.726 5.729 9.298 13.664 9.298 22.367v254.529h2.154c4.478 0 8.334.793 11.537 2.24 3.316 1.529 5.895 3.74 7.682 6.547 1.758 2.807 2.665 6.039 2.665 9.582 0 3.57-.964 7.539-2.863 11.734l-12.218 26.762c-2.607 5.725-5.697 10.289-9.949 13.578-4.535 3.486-9.949 5.328-16.895 5.328h-418.064c-6.945 0-12.359-1.842-16.896-5.328-4.252-3.289-7.342-7.853-9.949-13.578l-12.218-26.761c-1.929-4.195-2.864-8.135-2.864-11.707 0-3.57.907-6.803 2.666-9.609 1.786-2.807 4.365-5.018 7.682-6.547 3.203-1.447 7.059-2.24 11.537-2.24h2.154v-26.477c0-4.139 3.345-7.512 7.512-7.512 4.139 0 7.483 3.373 7.483 7.512v26.477h145.223c4.139 0 7.512 3.346 7.512 7.484 0 3.656 1.504 6.973 3.913 9.383 2.41 2.408 5.727 3.91 9.355 3.91h91.845c3.628 0 6.945-1.502 9.354-3.91 2.41-2.41 3.912-5.727 3.912-9.383 0-4.139 3.373-7.484 7.512-7.484h145.223v-254.53c0-4.564-1.871-8.73-4.904-11.764-3.033-3.004-7.2-4.904-11.764-4.904h-64.632v14.373h64.632c4.139 0 7.483 3.344 7.483 7.482v33.988c0 4.139-3.345 7.512-7.483 7.512-4.139 0-7.512-3.373-7.512-7.512v-26.477h-57.12v118.746h12.785c6.066 0 11.565 2.496 15.561 6.465 3.969 3.996 6.436 9.496 6.436 15.533v29.963c0 6.066-2.467 11.564-6.436 15.563-3.996 3.969-9.495 6.434-15.561 6.434h-281.63c-6.066 0-11.565-2.465-15.534-6.434-3.997-3.998-6.463-9.496-6.463-15.563v-29.963c0-6.037 2.466-11.537 6.463-15.533 3.969-3.969 9.468-6.465 15.534-6.465h12.785v-118.745h-57.12v212.463h370.3v-151.998c0-4.166 3.373-7.512 7.512-7.512s7.483 3.346 7.483 7.512v159.51c0 4.139-3.345 7.484-7.483 7.484h-385.324c-4.139 0-7.483-3.346-7.483-7.484v-227.486c0-4.139 3.345-7.482 7.483-7.482h64.632zm49.918 102.701c-4.139 0-7.483-3.344-7.483-7.482 0-4.168 3.345-7.512 7.483-7.512h156.222c4.139 0 7.512 3.344 7.512 7.512 0 4.139-3.373 7.482-7.512 7.482zm0 58c-4.139 0-7.483-3.346-7.483-7.484 0-4.166 3.345-7.514 7.483-7.514h122.403c4.139 0 7.483 3.348 7.483 7.514 0 4.139-3.345 7.484-7.483 7.484zm0-29c-4.139 0-7.483-3.346-7.483-7.484 0-4.166 3.345-7.512 7.483-7.512h156.222c4.139 0 7.512 3.346 7.512 7.512 0 4.139-3.373 7.484-7.512 7.484zm108.173-208.039c3.09 2.777 3.317 7.512.567 10.572-2.778 3.09-7.512 3.316-10.573.566-.028-.027-4.905-4.506-13.353-6.008v44.957c2.778 1.078 5.727 2.154 8.815 3.232 12.871 4.563 20.638 13.236 24.067 23.273 2.154 6.377 2.523 13.266 1.248 19.898-1.248 6.549-4.054 12.898-8.249 18.342-6.038 7.795-14.853 13.719-25.882 15.646v11.594c0 4.139-3.345 7.484-7.512 7.484-4.139 0-7.483-3.346-7.483-7.484v-11.025c-4.224-.17-7.908-.594-11.594-1.502-5.868-1.445-11.339-3.996-18.313-8.561-3.458-2.268-4.422-6.916-2.154-10.375s6.917-4.422 10.375-2.184c5.499 3.602 9.582 5.586 13.691 6.578 2.438.623 5.018.936 7.994 1.076v-55.93c-6.605-2.918-13.266-6.32-18.965-10.771-4.564-3.57-7.625-8.418-9.241-13.775-1.587-5.244-1.785-11.027-.68-16.641 1.105-5.555 3.486-10.998 7.115-15.619 4.082-5.215 9.695-9.356 16.753-11.481 1.701-.512 3.373-.935 5.018-1.248v-10.457c0-4.139 3.345-7.512 7.483-7.512 4.167 0 7.512 3.373 7.512 7.512v9.893c14.518 1.784 23.333 9.921 23.361 9.95zm-38.353 6.01c-.255.057-.51.141-.766.197-3.883 1.191-6.973 3.459-9.212 6.35-2.126 2.693-3.544 5.924-4.196 9.27-.652 3.289-.567 6.576.311 9.496.767 2.524 2.127 4.734 4.083 6.266 2.664 2.098 5.924 4.082 9.779 6.01v-37.589zm14.995 60.067v49.098c5.896-1.645 10.659-5.102 14.033-9.469 2.749-3.572 4.592-7.711 5.385-11.963.795-4.166.596-8.447-.736-12.357-3.175-9.327-10.263-12.249-18.682-15.309zm121.326 173.371v21.998c0 4.139-3.373 7.482-7.512 7.482h-241.036c-4.139 0-7.512-3.344-7.512-7.482v-21.998h-12.785c-1.928 0-3.656.795-4.933 2.07-1.275 1.275-2.069 3.033-2.069 4.932v29.963c0 1.928.794 3.686 2.069 4.961 1.276 1.246 3.005 2.041 4.933 2.041h281.63c1.928 0 3.685-.795 4.933-2.041 1.275-1.275 2.068-3.033 2.068-4.961v-29.963c0-1.898-.793-3.656-2.068-4.932-1.248-1.275-3.005-2.07-4.933-2.07zm-339.655 168.836h418.063c3.431 0 5.925-.736 7.739-2.154 2.126-1.645 3.884-4.338 5.527-7.938l12.189-26.76c.709-1.502 2.154-5.527 1.134-7.143-.992-1.56-4.961-1.758-6.548-1.758h-155.88c-1.332 4.789-3.884 9.07-7.314 12.473-5.103 5.131-12.19 8.307-19.957 8.307h-91.845c-7.767 0-14.855-3.176-19.985-8.307-3.401-3.402-5.952-7.711-7.284-12.473h-155.881c-1.587 0-5.556.197-6.548 1.758-1.021 1.615.426 5.641 1.134 7.143l12.188 26.76c1.645 3.6 3.402 6.293 5.5 7.938 1.842 1.417 4.337 2.154 7.768 2.154z"/></g></svg>