<svg height="512" viewBox="0 0 128 128" width="512" xmlns="http://www.w3.org/2000/svg" xmlns:xlink="http://www.w3.org/1999/xlink"><linearGradient id="a" gradientUnits="userSpaceOnUse" x1="96.112" x2="31.888" y1="113.382" y2="49.158"><stop offset="0" stop-color="#ff6136"/><stop offset="1" stop-color="#ffb400"/></linearGradient><path d="m39.044 54.767 1.521-2.635a1.75 1.75 0 0 1 3.032 1.75l-1.522 2.635a1.75 1.75 0 1 1 -3.031-1.75zm70.369 35.433-37.259-64.535a9.416 9.416 0 0 0 -16.308 0l-9.687 16.779a1.75 1.75 0 1 0 3.031 1.75l9.687-16.779a5.916 5.916 0 0 1 10.246 0l37.259 64.535a5.916 5.916 0 0 1 -5.123 8.873h-74.518a5.916 5.916 0 0 1 -5.123-8.873l14.529-25.165a1.75 1.75 0 1 0 -3.031-1.75l-14.529 25.165a9.416 9.416 0 0 0 8.154 14.123h74.518a9.416 9.416 0 0 0 8.154-14.123zm-45.9-12.629a6.091 6.091 0 0 1 -6.084-6.084v-20.71a6.09 6.09 0 0 1 6.084-6.083h.97a6.09 6.09 0 0 1 6.084 6.083v20.71a6.091 6.091 0 0 1 -6.084 6.084zm0-3.5h.97a2.587 2.587 0 0 0 2.584-2.584v-20.71a2.586 2.586 0 0 0 -2.584-2.583h-.97a2.586 2.586 0 0 0 -2.584 2.583v20.71a2.587 2.587 0 0 0 2.586 2.584zm-6.082 13.357a6.569 6.569 0 1 1 6.569 6.572 6.577 6.577 0 0 1 -6.569-6.572zm3.5 0a3.069 3.069 0 1 0 3.069-3.069 3.072 3.072 0 0 0 -3.069 3.069z" fill="url(#a)"/></svg>