<svg height="512" viewBox="0 0 512 512" width="512" xmlns="http://www.w3.org/2000/svg"><g id="Filled_outline" data-name="Filled outline"><path d="m485.544 223.33-68.367-138.566a22.374 22.374 0 0 0 -30.464-10.238l-74.103 38.674-13.373 24.4-27.046-3.31-235.78 123.048a23.633 23.633 0 0 0 -9.955 31.332l68.367 138.566a22.375 22.375 0 0 0 30.465 10.238l235.78-123.047 13.373-24.4 27.046 3.31 74.1-38.672a23.632 23.632 0 0 0 9.957-31.335z" fill="#ffb431"/><path d="m488 192v160a24.006 24.006 0 0 1 -24 24h-88l-24-16-24 16h-280a24.006 24.006 0 0 1 -24-24v-160a24.006 24.006 0 0 1 24-24h280l24 16 24-16h88a24.006 24.006 0 0 1 24 24z" fill="#348ed8"/><path d="m344 224h16v24h-16z" fill="#266ba3"/><path d="m344 184h16v24h-16z" fill="#266ba3"/><path d="m344 264h16v24h-16z" fill="#266ba3"/><path d="m344 304h16v24h-16z" fill="#266ba3"/><path d="m344 344h16v24h-16z" fill="#266ba3"/><path d="m145.27 224.71 9.33 29.29-30.03 6.57-6.57 30.03-29.29-9.33-20.71 22.73-20.71-22.73-23.29 7.42v-96.69a24.006 24.006 0 0 1 24-24h102.14l-4.87 15.29 22.73 20.71z" fill="#ffb431"/><path d="m44.759 216h62.482v15.999h-62.482z" fill="#fade8d" transform="matrix(.64 -.768 .768 .64 -144.737 138.987)"/><path d="m48 200h16v16h-16z" fill="#fade8d"/><path d="m88 232h16v16h-16z" fill="#fade8d"/><path d="m132 308h16v40h-16z" fill="#266ba3" transform="matrix(.8 -.6 .6 .8 -168.8 149.6)"/><path d="m120 320h40v16h-40z" fill="#266ba3" transform="matrix(.6 -.8 .8 .6 -206.404 243.217)"/><path d="m180 308h16v40h-16z" fill="#266ba3" transform="matrix(.8 -.6 .6 .8 -159.2 178.4)"/><path d="m168 320h40v16h-40z" fill="#266ba3" transform="matrix(.6 -.8 .8 .6 -187.202 281.618)"/><path d="m228 308h16v40h-16z" fill="#266ba3" transform="matrix(.8 -.6 .6 .8 -149.6 207.2)"/><path d="m216 320h40v16h-40z" fill="#266ba3" transform="matrix(.6 -.8 .8 .6 -168 320.02)"/><path d="m276 308h16v40h-16z" fill="#266ba3" transform="matrix(.8 -.6 .6 .8 -140 236)"/><path d="m264 320h40v16h-40z" fill="#266ba3" transform="matrix(.6 -.8 .8 .6 -148.799 358.421)"/><path d="m208 264h96v16h-96z" fill="#2d7dbe"/><path d="m208 232h96v16h-96z" fill="#2d7dbe"/><path d="m208 200h32v16h-32z" fill="#2d7dbe"/><path d="m256 200h48v16h-48z" fill="#2d7dbe"/><path d="m384 264h72v16h-72z" fill="#2d7dbe"/><path d="m384 232h72v16h-72z" fill="#2d7dbe"/><path d="m384 200h72v16h-72z" fill="#2d7dbe"/><path d="m384 328h72v16h-72z" fill="#2d7dbe"/><path d="m384 296h72v16h-72z" fill="#2d7dbe"/><g fill="#fade8d"><path d="m248 480h16v16h-16z"/><path d="m248 400h16v64h-16z"/><path d="m248 48h16v72h-16z"/><path d="m248 16h16v16h-16z"/><path d="m479.006 444.303h16v23.804h-16z" transform="matrix(.655 -.756 .756 .655 -176.698 525.447)"/><path d="m437.495 389.342h16v61.774h-16z" transform="matrix(.655 -.756 .756 .655 -163.833 481.694)"/><path d="m78.201 53.527h16v110.626h-16z" transform="matrix(.655 -.756 .756 .655 -52.505 102.705)"/><path d="m16.813 43.975h16v23.325h-16z" transform="matrix(.655 -.756 .756 .655 -33.483 37.951)"/><path d="m440.241 60.8h63.518v16h-63.518z" transform="matrix(.756 -.655 .655 .756 70.243 325.916)"/><path d="m8.241 435.2h63.518v16h-63.518z" transform="matrix(.756 -.655 .655 .756 -280.478 134.46)"/><path d="m344 394.334h16v107.331h-16z" transform="matrix(.894 -.447 .447 .894 -163.19 204.716)"/><path d="m160 8.446h16v143.108h-16z" transform="matrix(.894 -.447 .447 .894 -18.041 83.578)"/><path d="m118.695 460h62.61v16h-62.61z" transform="matrix(.447 -.894 .894 .447 -335.67 392.842)"/><path d="m337.167 32h53.666v16h-53.666z" transform="matrix(.447 -.894 .894 .447 165.42 347.672)"/></g><path d="m496 304v-112a32.036 32.036 0 0 0 -32-32h-.786l-38.86-78.78a30.615 30.615 0 0 0 -18.046-15.728 29.894 29.894 0 0 0 -23.3 1.946l-74.1 38.669a8.01 8.01 0 0 0 -3.314 3.248l-10.764 19.645-21.668-2.65a7.953 7.953 0 0 0 -4.673.848l-62.85 32.802h-157.639a32.036 32.036 0 0 0 -32 32v16h16v-16a16.019 16.019 0 0 1 16-16h91.2l-1.549 4.861a8 8 0 0 0 2.235 8.343l16.235 14.796-16.239 14.8a8 8 0 0 0 -2.236 8.342l6.666 20.924-21.452 4.693a8 8 0 0 0 -6.105 6.105l-4.693 21.452-20.924-6.666a8 8 0 0 0 -8.342 2.236l-14.796 16.235-14.8-16.239a7.993 7.993 0 0 0 -8.343-2.235l-12.857 4.098v-53.745h-16v128a32.036 32.036 0 0 0 32 32h162.458l-88.872 46.379a14.031 14.031 0 0 1 -10.929.919 14.742 14.742 0 0 1 -8.657-7.598l-13.444-27.24-14.35 7.08 13.44 27.24a30.615 30.615 0 0 0 18.046 15.728 29.905 29.905 0 0 0 23.3-1.946l116.051-60.562h82.957a8.005 8.005 0 0 0 4.438-1.344l19.562-13.041 19.562 13.041a8.005 8.005 0 0 0 4.438 1.344h88a32.036 32.036 0 0 0 32-32v-32h-16v32a16.019 16.019 0 0 1 -16 16h-85.578l-18.422-12.281v-11.719h-16v11.719l-18.422 12.281h-277.578a16.019 16.019 0 0 1 -16-16v-57.463l12.831-4.088 17.255 18.939a8 8 0 0 0 11.828 0l17.255-18.939 24.4 7.774a8 8 0 0 0 10.243-5.913l5.474-25.021 25.021-5.474a8 8 0 0 0 5.913-10.243l-7.774-24.4 18.939-17.255a8 8 0 0 0 0-11.828l-18.939-17.255 1.542-4.834h169.59l18.422 12.281v19.719h16v-19.719l18.422-12.281h85.578a16.019 16.019 0 0 1 16 16v112zm-120-144a8.005 8.005 0 0 0 -4.438 1.344l-19.562 13.041-19.562-13.041a8.005 8.005 0 0 0 -4.438-1.344h-87.781l33.469-17.467 24.581 3.007a8 8 0 0 0 7.987-4.1l12.205-22.273 71.953-37.55a14.031 14.031 0 0 1 10.929-.919 14.743 14.743 0 0 1 8.662 7.6l35.369 71.702zm-16 88h-16v-24h16zm0 40h-16v-24h16zm-16 16h16v24h-16zm-254.146-109.121 12.292 10.242-40 48-12.292-10.242zm-41.854 5.121h16v16h-16zm40 48v-16h16v16zm70.4 68.8-8.4 11.2 8.4 11.2-12.8 9.6-5.6-7.466-5.6 7.466-12.8-9.6 8.4-11.2-8.4-11.2 12.8-9.6 5.6 7.466 5.6-7.466zm48 0-8.4 11.2 8.4 11.2-12.8 9.6-5.6-7.466-5.6 7.466-12.8-9.6 8.4-11.2-8.4-11.2 12.8-9.6 5.6 7.466 5.6-7.466zm48 0-8.4 11.2 8.4 11.2-12.8 9.6-5.6-7.466-5.6 7.466-12.8-9.6 8.4-11.2-8.4-11.2 12.8-9.6 5.6 7.466 5.6-7.466zm48 0-8.4 11.2 8.4 11.2-12.8 9.6-5.6-7.466-5.6 7.466-12.8-9.6 8.4-11.2-8.4-11.2 12.8-9.6 5.6 7.466 5.6-7.466zm1.6-36.8h-96v-16h96zm0-32h-96v-16h96zm-64-48v16h-32v-16zm64 16h-48v-16h48zm152 64h-72v-16h72zm0-32h-72v-16h72zm0-32h-72v-16h72zm-72 112h72v16h-72zm72-16h-72v-16h72zm-208 168h16v16h-16zm16-16h-16v-64h16zm-16-416h16v72h-16zm16-16h-16v-16h16zm219.251 410.364 17.988 15.59-10.478 12.092-17.989-15.59zm-9.176-7.952-10.475 12.088-46.682-40.458 10.479-12.092zm-424.434-367.844 83.6 72.453-10.478 12.091-83.601-72.452zm-21.253 2.754-17.627-15.276 10.478-12.092 17.627 15.276zm472.851-15.276-48 41.6-10.478-12.092 48-41.6zm-480 416-10.478-12.092 48-41.6 10.478 12.092zm361.916 22.376-14.31 7.156-48-96 14.31-7.156zm-190.31-344.844-64-128 14.31-7.156 64 128zm-49.69 352-14.31-7.156 28-56 14.31 7.156zm240-480-24 48-14.31-7.156 24-48z"/></g></svg>